<?xml version="1.0" standalone="no"?>
<!DOCTYPE svg PUBLIC "-//W3C//DTD SVG 20010904//EN"
 "http://www.w3.org/TR/2001/REC-SVG-20010904/DTD/svg10.dtd">
<svg version="1.0" xmlns="http://www.w3.org/2000/svg"
 width="50.000000pt" height="50.000000pt" viewBox="0 0 50.000000 50.000000"
 preserveAspectRatio="xMidYMid meet">

<g transform="translate(0.000000,50.000000) scale(0.100000,-0.100000)"
fill="currentColor" stroke="none">
<path d="M11 456 c-9 -11 -8 -18 4 -30 24 -24 446 -24 470 0 12 12 13 19 4 30
-17 21 -461 21 -478 0z"/>
<path d="M10 265 c-10 -12 -10 -18 0 -30 18 -22 282 -22 300 0 10 12 10 18 0
30 -18 22 -282 22 -300 0z"/>
<path d="M15 74 c-12 -12 -13 -19 -4 -30 17 -21 461 -21 478 0 9 11 8 18 -4
30 -24 24 -446 24 -470 0z"/>
</g>
</svg>
