<?xml version="1.0" standalone="no"?>
<!DOCTYPE svg PUBLIC "-//W3C//DTD SVG 20010904//EN"
 "http://www.w3.org/TR/2001/REC-SVG-20010904/DTD/svg10.dtd">
<svg version="1.0" xmlns="http://www.w3.org/2000/svg"
 width="224.000000pt" height="294.000000pt" viewBox="0 0 224.000000 294.000000"
 preserveAspectRatio="xMidYMid meet">

<g transform="translate(0.000000,294.000000) scale(0.100000,-0.100000)"
fill="currentColor" stroke="none">
<path d="M980 2924 c-60 -12 -161 -49 -235 -87 -113 -58 -254 -200 -312 -312
-47 -92 -68 -153 -83 -245 -16 -95 -16 -95 -70 -128 -28 -17 -50 -36 -50 -42
0 -16 17 -12 60 15 29 18 42 22 44 13 3 -7 12 -47 21 -88 10 -41 33 -116 51
-166 19 -51 34 -99 34 -107 0 -9 -13 -25 -29 -36 -16 -12 -35 -37 -41 -55 -17
-53 6 -96 77 -144 80 -55 94 -73 147 -184 55 -117 79 -138 152 -138 47 0 75
-12 61 -26 -3 -3 -81 -18 -173 -34 -254 -43 -407 -98 -493 -175 -133 -120 -42
-237 259 -333 178 -57 408 -82 739 -82 228 0 395 13 530 41 302 62 491 166
491 270 0 62 -100 148 -229 198 -88 34 -278 78 -403 94 -49 6 -88 15 -88 21 0
22 140 246 213 339 16 21 45 46 65 55 44 21 56 46 18 36 -14 -3 -26 -3 -26 1
0 4 27 64 60 134 70 150 120 294 120 345 0 34 2 36 31 36 l31 0 -26 30 c-14
17 -28 47 -31 68 -45 272 -168 456 -397 595 -108 65 -202 90 -358 93 -74 1
-146 0 -160 -2z m365 -57 c296 -97 514 -388 515 -687 0 -129 -49 -288 -141
-460 -55 -102 -81 -128 -138 -136 -52 -7 -81 -20 -81 -35 0 -7 19 -8 55 -4 38
5 55 4 55 -4 0 -29 -334 -494 -399 -555 -24 -23 -42 -30 -84 -34 -31 -2 -63 1
-76 7 -26 14 -117 128 -186 231 -33 49 -51 89 -56 122 -4 27 -11 58 -14 69 -7
20 -4 21 46 16 30 -2 123 0 206 6 l153 11 44 -32 c72 -52 116 -38 116 37 0 17
11 42 25 59 32 38 32 67 -1 88 -14 10 -34 34 -44 54 -34 66 -60 62 -129 -20
-42 -49 -44 -51 -84 -45 -149 20 -251 36 -256 40 -2 3 14 25 37 48 46 47 53
78 27 126 -29 57 -58 55 -194 -16 -122 -63 -126 -63 -211 -2 -62 45 -129 200
-150 349 -35 248 107 535 338 684 79 52 123 71 217 97 104 28 299 22 410 -14z
m-435 -1118 c19 -35 2 -67 -61 -116 -70 -55 -73 -53 76 -84 69 -14 132 -19
273 -19 227 0 237 -10 57 -61 -55 -16 -116 -22 -282 -28 -117 -4 -216 -10
-219 -14 -3 -3 1 -27 10 -53 21 -63 20 -78 -8 -110 -22 -27 -24 -27 -48 -12
-14 9 -44 54 -68 100 -63 122 -93 162 -150 198 -89 57 -112 110 -68 157 30 32
59 29 132 -12 35 -19 68 -35 75 -35 6 0 28 11 49 24 136 85 210 106 232 65z
m395 -139 c9 -27 -11 -50 -41 -50 -30 0 -31 23 -4 50 25 25 37 25 45 0z m7
-177 c22 -20 23 -42 3 -50 -17 -6 -55 23 -55 43 0 10 12 20 29 23 3 1 13 -6
23 -16z m-425 -339 c26 -31 67 -78 91 -105 112 -124 208 -103 340 73 l67 89
85 -6 c168 -12 348 -54 498 -117 235 -98 195 -234 -98 -332 -198 -66 -431 -96
-750 -96 -338 0 -607 37 -802 110 -122 45 -208 119 -208 176 0 58 118 138 276
187 115 36 310 72 406 76 45 1 48 -1 95 -55z"/>
<path d="M1025 2451 c-44 -19 -100 -78 -117 -120 -14 -38 -12 -132 5 -171 39
-95 154 -151 262 -128 93 19 165 119 165 229 0 52 -45 137 -87 167 -65 45
-159 55 -228 23z m202 -48 c56 -45 76 -86 76 -152 0 -76 -22 -124 -73 -157
-48 -32 -128 -43 -183 -25 -74 25 -137 129 -123 203 10 56 59 122 107 147 64
32 145 26 196 -16z"/>
<path d="M2096 1954 c-3 -9 -6 -27 -6 -42 0 -42 -39 -110 -86 -148 -24 -20
-44 -40 -44 -45 0 -39 108 50 139 114 12 25 21 63 21 90 0 46 -12 62 -24 31z"/>
<path d="M113 1905 c-15 -41 110 -205 157 -205 18 0 10 12 -45 73 -36 39 -69
84 -72 99 -7 38 -30 56 -40 33z"/>
<path d="M35 293 c-11 -3 -23 -10 -27 -17 -9 -13 -10 -212 -2 -244 10 -34 28
-21 36 26 9 56 14 62 49 62 45 0 68 -16 85 -60 14 -35 40 -58 51 -46 5 5 -13
66 -30 103 -8 18 -6 27 8 43 26 29 23 76 -7 106 -20 20 -37 26 -84 29 -32 2
-68 1 -79 -2z m131 -54 c19 -15 18 -54 -2 -73 -28 -28 -109 -17 -120 16 -9 28
3 66 24 72 25 7 82 -1 98 -15z"/>
<path d="M340 291 c-25 -7 -25 -7 -28 -144 l-3 -137 78 0 c72 0 116 11 102 24
-3 3 -33 9 -67 12 -48 5 -63 11 -67 25 -13 39 3 57 57 66 29 4 51 13 50 18 0
6 -26 14 -57 19 -52 8 -55 10 -55 36 0 32 6 35 88 45 54 7 69 21 30 29 -51 10
-104 13 -128 7z"/>
<path d="M977 293 c-9 -9 -8 -189 2 -238 8 -42 18 -34 23 20 3 27 7 30 51 37
86 12 120 52 101 121 -7 22 -21 38 -44 49 -34 18 -120 25 -133 11z m131 -56
c30 -24 -6 -87 -50 -87 -37 0 -50 15 -55 64 l-6 46 49 -6 c27 -4 55 -11 62
-17z"/>
<path d="M1252 288 c-13 -13 -17 -190 -6 -247 6 -31 7 -31 69 -31 67 0 95 6
95 21 0 5 -29 9 -65 9 l-65 0 -1 113 c0 123 -7 155 -27 135z"/>
<path d="M1867 286 c-46 -17 -64 -32 -83 -67 -31 -61 -8 -150 49 -191 35 -25
115 -31 140 -9 26 21 11 31 -46 31 -63 0 -91 17 -107 65 -9 26 -9 44 0 70 16
48 44 65 107 65 54 0 72 10 49 29 -22 18 -69 22 -109 7z"/>
<path d="M2070 155 l0 -145 69 0 c38 0 76 3 85 6 31 12 4 24 -55 24 l-59 0 0
44 c0 49 8 56 72 56 57 0 44 23 -20 34 -50 9 -52 10 -52 42 0 37 8 41 84 46
22 2 41 8 43 14 5 16 -30 24 -104 24 l-63 0 0 -145z"/>
<path d="M1550 224 c-68 -144 -101 -260 -60 -210 45 54 49 56 104 56 50 0 57
-3 80 -32 14 -18 28 -29 32 -26 16 17 -86 268 -113 276 -6 2 -25 -27 -43 -64z
m64 -53 c14 -27 22 -51 19 -55 -9 -9 -83 -8 -83 2 0 9 33 102 37 102 1 0 14
-22 27 -49z"/>
<path d="M717 213 c-4 -3 -7 -12 -7 -20 0 -15 26 -18 34 -4 7 11 -18 33 -27
24z"/>
<path d="M714 46 c-4 -10 -2 -22 4 -28 8 -8 13 -7 18 6 4 10 2 22 -4 28 -8 8
-13 7 -18 -6z"/>
</g>
</svg>
