<?xml version="1.0" standalone="no"?>
<!DOCTYPE svg PUBLIC "-//W3C//DTD SVG 20010904//EN"
 "http://www.w3.org/TR/2001/REC-SVG-20010904/DTD/svg10.dtd">
<svg version="1.0" xmlns="http://www.w3.org/2000/svg"
 width="500.000000pt" height="500.000000pt" viewBox="0 0 500.000000 500.000000"
 preserveAspectRatio="xMidYMid meet">

<g transform="translate(0.000000,500.000000) scale(0.100000,-0.100000)"
fill="#000000" stroke="none">
<path d="M2282 3440 c-231 -62 -399 -249 -431 -480 -4 -33 -10 -61 -12 -63 -2
-2 -21 -14 -41 -26 -21 -12 -38 -27 -38 -32 0 -13 9 -11 46 12 l33 20 6 -28
c20 -92 29 -125 55 -187 27 -65 28 -70 12 -82 -9 -7 -20 -14 -23 -14 -4 0 -12
-13 -18 -28 -20 -49 -5 -80 62 -123 55 -36 63 -46 95 -117 48 -107 66 -125
119 -118 31 4 43 2 47 -9 6 -17 7 -16 -141 -39 -383 -59 -522 -217 -291 -330
159 -79 357 -111 673 -111 250 0 372 14 534 62 141 40 241 109 241 166 0 59
-70 118 -195 163 -70 25 -257 64 -310 64 -19 0 -36 4 -39 9 -3 5 36 72 86 149
73 109 99 142 122 149 16 4 31 14 34 22 3 9 -2 11 -17 6 -11 -3 -21 -4 -21 -2
0 3 24 56 54 118 52 108 86 211 86 258 0 18 4 20 28 16 l27 -6 -26 23 c-19 17
-28 37 -33 73 -27 215 -184 403 -396 475 -93 32 -232 36 -328 10z m297 -26
c200 -56 354 -223 398 -428 25 -120 2 -239 -79 -401 -62 -122 -72 -134 -128
-141 -48 -6 -69 -18 -56 -31 3 -3 23 -1 46 5 22 5 40 6 40 2 0 -29 -275 -410
-314 -435 -31 -21 -88 -22 -115 -3 -35 25 -177 222 -173 240 2 9 -1 33 -7 54
l-10 36 54 -7 c30 -3 99 -1 155 5 96 12 102 11 123 -8 58 -52 97 -46 97 16 0
27 6 41 21 50 26 17 22 54 -8 67 -12 5 -25 22 -28 37 -4 16 -15 30 -28 34 -17
5 -29 -3 -62 -40 l-40 -46 -80 10 c-91 10 -145 20 -145 27 0 2 13 15 29 29 36
30 42 53 26 91 -22 51 -55 51 -147 -2 -45 -25 -84 -45 -89 -45 -4 0 -30 14
-58 31 -43 27 -53 40 -77 98 -39 98 -54 159 -54 230 0 214 145 423 352 508
109 44 238 50 357 17z m-311 -836 c25 -25 13 -55 -38 -94 l-50 -38 42 -13 c85
-25 200 -36 305 -29 131 8 136 -8 12 -43 -71 -20 -108 -24 -236 -25 -84 -1
-153 -4 -153 -7 0 -4 7 -26 15 -49 14 -39 14 -46 -1 -67 -29 -46 -54 -28 -106
77 -38 78 -54 100 -88 122 -64 41 -80 59 -80 89 0 20 8 34 26 46 26 17 28 16
86 -16 l59 -32 77 45 c79 47 109 55 130 34z m302 -123 c0 -21 -5 -25 -30 -25
-30 0 -30 0 -14 25 9 14 23 25 30 25 8 0 14 -10 14 -25z m11 -158 c-7 -7 -17
-5 -31 8 -26 23 -25 33 3 37 25 3 44 -29 28 -45z m-296 -253 c106 -141 180
-140 289 2 l59 77 76 -7 c176 -15 387 -81 446 -140 86 -86 -43 -184 -308 -235
-435 -84 -1027 -18 -1151 129 -14 17 -26 39 -26 49 0 45 64 93 180 135 81 30
257 64 331 65 47 1 47 1 104 -75z"/>
<path d="M2340 3088 c-48 -33 -72 -70 -77 -121 -7 -60 11 -110 52 -146 62 -54
151 -60 214 -14 42 30 73 101 68 151 -6 54 -46 114 -90 135 -51 25 -127 22
-167 -5z m150 -13 c49 -25 80 -75 80 -129 0 -84 -49 -137 -134 -144 -61 -5
-110 23 -139 78 -62 119 74 256 193 195z"/>
<path d="M3160 2703 c0 -45 -27 -93 -69 -124 -33 -24 -40 -39 -18 -39 15 0 80
65 96 97 14 27 15 103 1 103 -5 0 -10 -17 -10 -37z"/>
<path d="M1675 2690 c-18 -29 82 -160 122 -160 21 0 16 6 -42 63 -33 32 -55
62 -55 74 0 25 -15 39 -25 23z"/>
<path d="M1597 1473 c-4 -3 -7 -50 -7 -104 0 -75 3 -98 14 -102 11 -5 16 4 18
36 3 37 6 42 30 45 35 4 68 -14 68 -38 0 -23 28 -52 42 -44 6 4 6 10 -1 17 -6
6 -11 20 -11 32 0 12 -5 26 -12 33 -9 9 -8 16 5 30 23 25 21 58 -3 82 -15 15
-33 20 -78 20 -32 0 -62 -3 -65 -7z m123 -43 c8 -14 8 -26 0 -41 -9 -16 -19
-20 -53 -17 -35 3 -43 7 -45 26 -6 40 5 52 47 52 30 0 43 -5 51 -20z"/>
<path d="M1824 1467 c-2 -7 -3 -56 -2 -108 l3 -94 64 0 c82 0 98 22 19 27 -52
3 -53 4 -53 33 0 28 3 30 45 35 60 7 58 24 -3 28 -46 3 -48 4 -45 30 3 25 7
27 56 30 75 4 63 26 -16 30 -46 2 -64 -1 -68 -11z"/>
<path d="M2320 1375 c0 -63 4 -105 10 -105 6 0 10 16 10 35 0 32 2 35 31 35
32 0 69 15 81 34 14 21 8 66 -12 86 -15 15 -33 20 -70 20 l-50 0 0 -105z m108
44 c4 -32 -18 -51 -55 -47 -25 3 -28 8 -31 41 l-3 38 43 -3 c38 -3 43 -6 46
-29z"/>
<path d="M2524 1467 c-3 -8 -3 -56 -2 -108 l3 -94 59 0 c39 0 61 4 64 13 2 8
-11 12 -47 12 l-51 0 0 95 c0 59 -4 95 -10 95 -6 0 -13 -6 -16 -13z"/>
<path d="M2731 1378 c-23 -57 -41 -106 -41 -110 0 -18 21 -6 32 17 10 22 17
25 63 25 46 0 53 -3 64 -27 8 -16 15 -23 21 -17 12 12 -69 214 -86 214 -6 0
-30 -46 -53 -102z m89 -30 c0 -5 -16 -8 -35 -8 -40 0 -40 -1 -19 48 l15 37 19
-35 c11 -19 19 -38 20 -42z"/>
<path d="M2963 1460 c-87 -53 -44 -200 59 -200 37 0 58 10 58 26 0 11 -9 13
-38 8 -54 -8 -92 23 -92 76 0 53 38 84 92 76 29 -5 38 -3 38 8 0 31 -70 35
-117 6z"/>
<path d="M3142 1373 l3 -108 59 0 c39 0 61 4 64 13 2 8 -11 12 -47 12 l-51 0
0 35 c0 35 0 35 46 35 59 0 55 24 -4 28 -39 3 -42 5 -42 33 0 28 1 29 50 29
38 0 50 4 50 15 0 12 -14 15 -65 15 l-66 0 3 -107z"/>
<path d="M2120 1405 c0 -8 7 -15 15 -15 8 0 15 7 15 15 0 8 -7 15 -15 15 -8 0
-15 -7 -15 -15z"/>
<path d="M2122 1284 c4 -21 22 -23 26 -1 2 10 -3 17 -13 17 -10 0 -15 -6 -13
-16z"/>
</g>
</svg>
