<svg width="155" height="45" viewBox="0 0 155 45" fill="none" xmlns="http://www.w3.org/2000/svg">
<rect x="8" y="26" width="147" height="12" fill="#7A726E"/>
<path d="M14.0623 32.36L7.10231 22.91C6.88231 22.73 6.78231 22.49 6.80231 22.19C6.84231 21.89 7.00231 21.74 7.28231 21.74C7.64231 21.74 8.10231 21.74 8.66231 21.74C9.24231 21.74 9.71231 21.72 10.0723 21.68C10.5323 21.64 11.0223 21.55 11.5423 21.41C12.0623 21.27 12.5423 21.04 12.9823 20.72C13.4023 20.4 13.7523 19.97 14.0323 19.43C14.3323 18.87 14.5023 18.16 14.5423 17.3C14.5423 15.74 14.1023 14.66 13.2223 14.06C12.3623 13.44 11.1823 13.11 9.68231 13.07C9.52231 13.07 9.30231 13.08 9.02231 13.1C8.76231 13.1 8.50231 13.1 8.24231 13.1C7.96231 13.12 7.70231 13.14 7.46231 13.16C7.22231 13.16 7.06231 13.16 6.98231 13.16C6.44231 13.24 6.06231 13.41 5.84231 13.67C5.62231 13.93 5.51231 14.5 5.51231 15.38V32.36H3.68231V15.35C3.68231 14.57 3.62231 14.05 3.50231 13.79C3.38231 13.53 3.19231 13.26 2.93231 12.98C2.81231 12.9 2.62231 12.82 2.36231 12.74C2.10231 12.64 1.86231 12.59 1.64231 12.59C1.34231 12.59 1.18231 12.45 1.16231 12.17C1.16231 11.87 1.31231 11.72 1.61231 11.72H7.79231C8.23231 11.72 8.78231 11.73 9.44231 11.75C10.1223 11.77 10.7123 11.79 11.2123 11.81C11.8723 11.85 12.5223 11.99 13.1623 12.23C13.8023 12.45 14.3823 12.79 14.9023 13.25C15.4023 13.69 15.8123 14.25 16.1323 14.93C16.4523 15.61 16.6223 16.4 16.6423 17.3C16.6423 18.14 16.4623 18.9 16.1023 19.58C15.7623 20.26 15.3123 20.85 14.7523 21.35C14.1923 21.85 13.5523 22.24 12.8323 22.52C12.1123 22.78 11.3823 22.91 10.6423 22.91H9.32231L16.4323 32.36H14.0623ZM33.4076 28.28L33.1976 32.33H21.0176V15.38C21.0176 14.78 20.9576 14.32 20.8376 14C20.7376 13.66 20.5276 13.35 20.2076 13.07C20.0676 12.95 19.8776 12.85 19.6376 12.77C19.3976 12.69 19.1676 12.65 18.9476 12.65C18.6076 12.65 18.4376 12.5 18.4376 12.2C18.4376 11.88 18.5976 11.72 18.9176 11.72H32.6576L32.8076 15.29C32.8076 15.45 32.6876 15.53 32.4476 15.53C32.2276 15.53 32.1176 15.44 32.1176 15.26C32.1176 15.26 32.0576 15.07 31.9376 14.69C31.8176 14.31 31.6576 13.98 31.4576 13.7C31.2776 13.48 31.0076 13.31 30.6476 13.19C30.2876 13.05 29.7476 12.98 29.0276 12.98H25.0376C24.6576 12.98 24.3576 13.01 24.1376 13.07C23.9176 13.11 23.6876 13.21 23.4476 13.37C23.2276 13.55 23.0776 13.77 22.9976 14.03C22.9376 14.29 22.9076 14.7 22.9076 15.26V20.9H27.7676C28.0876 20.9 28.3976 20.89 28.6976 20.87C28.9976 20.85 29.2476 20.8 29.4476 20.72C29.8676 20.56 30.1976 20.35 30.4376 20.09C30.6976 19.83 30.8276 19.4 30.8276 18.8C30.8276 18.64 30.9476 18.56 31.1876 18.56C31.4276 18.54 31.5476 18.61 31.5476 18.77V24.38C31.5476 24.62 31.4176 24.74 31.1576 24.74C30.8976 24.74 30.7676 24.62 30.7676 24.38C30.7676 24.38 30.7376 24.22 30.6776 23.9C30.6176 23.56 30.4376 23.21 30.1376 22.85C29.9176 22.61 29.6076 22.44 29.2076 22.34C28.8276 22.24 28.3476 22.19 27.7676 22.19H22.9076V29C22.9076 29.28 22.9376 29.57 22.9976 29.87C23.0776 30.15 23.2176 30.37 23.4176 30.53C23.6576 30.73 23.9276 30.87 24.2276 30.95C24.5476 31.01 25.0276 31.04 25.6676 31.04H29.7476C30.3676 31.04 30.8476 30.96 31.1876 30.8C31.5476 30.64 31.8176 30.43 31.9976 30.17C32.1776 29.89 32.3076 29.59 32.3876 29.27C32.4676 28.95 32.5376 28.62 32.5976 28.28C32.6376 28.06 32.7776 27.97 33.0176 28.01C33.2776 28.03 33.4076 28.12 33.4076 28.28ZM48.9823 18.56C48.4623 18.56 48.0223 18.4 47.6623 18.08C47.3223 17.76 47.1523 17.33 47.1523 16.79C47.1523 16.27 47.3223 15.84 47.6623 15.5C48.0023 15.14 48.4423 14.96 48.9823 14.96C49.4623 14.96 49.8923 15.13 50.2723 15.47C50.6523 15.81 50.8423 16.25 50.8423 16.79C50.8423 17.27 50.6823 17.69 50.3623 18.05C50.0423 18.39 49.5823 18.56 48.9823 18.56ZM48.9823 29.36C48.4623 29.36 48.0223 29.2 47.6623 28.88C47.3223 28.54 47.1523 28.1 47.1523 27.56C47.1523 27.04 47.3223 26.61 47.6623 26.27C48.0023 25.91 48.4423 25.73 48.9823 25.73C49.4623 25.73 49.8923 25.9 50.2723 26.24C50.6523 26.58 50.8423 27.02 50.8423 27.56C50.8423 28.04 50.6823 28.46 50.3623 28.82C50.0423 29.18 49.5823 29.36 48.9823 29.36ZM78.9188 17.33C78.9188 18.17 78.7388 18.94 78.3788 19.64C78.0388 20.32 77.5888 20.91 77.0288 21.41C76.4688 21.91 75.8288 22.3 75.1088 22.58C74.3888 22.84 73.6588 22.97 72.9188 22.97C72.7388 22.97 72.4588 22.98 72.0788 23C71.6988 23 71.3188 23 70.9388 23C70.5388 23 70.1888 23 69.8888 23C69.6088 23 69.4688 23 69.4688 23C69.2888 23 69.1488 22.93 69.0488 22.79C68.9488 22.65 68.8988 22.49 68.8988 22.31C68.8988 22.15 68.9488 22 69.0488 21.86C69.1488 21.7 69.2988 21.62 69.4988 21.62C69.8388 21.62 70.3188 21.62 70.9388 21.62C71.5588 21.62 72.0488 21.6 72.4088 21.56C72.8688 21.52 73.3488 21.44 73.8488 21.32C74.3488 21.18 74.8188 20.96 75.2588 20.66C75.6788 20.36 76.0288 19.95 76.3088 19.43C76.5888 18.91 76.7488 18.21 76.7888 17.33C76.7888 15.77 76.3588 14.68 75.4988 14.06C74.6388 13.42 73.4588 13.08 71.9588 13.04C71.7988 13.04 71.5788 13.05 71.2988 13.07C71.0388 13.07 70.7788 13.07 70.5188 13.07C70.2388 13.07 69.9788 13.08 69.7388 13.1C69.4988 13.1 69.3388 13.1 69.2588 13.1C68.7188 13.18 68.3388 13.34 68.1188 13.58C67.8988 13.82 67.7888 14.39 67.7888 15.29V32.42H65.9288V15.38C65.9288 14.62 65.8688 14.11 65.7488 13.85C65.6488 13.59 65.4688 13.32 65.2088 13.04C65.0888 12.96 64.8888 12.88 64.6088 12.8C64.3288 12.7 64.0688 12.65 63.8288 12.65C63.5288 12.65 63.3888 12.5 63.4088 12.2C63.4288 11.88 63.5788 11.72 63.8588 11.72H70.0388C70.4988 11.72 71.0588 11.73 71.7188 11.75C72.3988 11.75 72.9888 11.76 73.4888 11.78C74.1488 11.82 74.7988 11.96 75.4388 12.2C76.0788 12.44 76.6588 12.79 77.1788 13.25C77.6788 13.71 78.0888 14.28 78.4088 14.96C78.7288 15.64 78.8988 16.43 78.9188 17.33ZM84.6282 12.8V28.31C84.6282 28.31 84.6182 28.39 84.5982 28.55C84.5982 28.69 84.6082 28.87 84.6282 29.09C84.6682 29.29 84.7282 29.5 84.8082 29.72C84.9082 29.94 85.0582 30.12 85.2582 30.26C85.5782 30.5 85.9282 30.66 86.3082 30.74C86.7082 30.8 87.1782 30.83 87.7182 30.83H91.0782C91.9182 30.83 92.5282 30.68 92.9082 30.38C93.2882 30.06 93.5782 29.51 93.7782 28.73C93.8182 28.53 93.8582 28.27 93.8982 27.95C93.9582 27.61 93.9882 27.44 93.9882 27.44C94.0082 27.24 94.1282 27.15 94.3482 27.17C94.5882 27.17 94.7082 27.26 94.7082 27.44L94.5582 32.24H82.7082V15.47C82.7082 14.93 82.6482 14.45 82.5282 14.03C82.4282 13.61 82.1782 13.25 81.7782 12.95C81.6782 12.89 81.5782 12.84 81.4782 12.8C81.3782 12.76 81.2682 12.73 81.1482 12.71C81.0482 12.69 80.9382 12.67 80.8182 12.65C80.6982 12.63 80.5882 12.61 80.4882 12.59C80.1882 12.57 80.0382 12.42 80.0382 12.14C80.0582 11.86 80.2082 11.72 80.4882 11.72H83.5482C83.9282 11.72 84.1982 11.83 84.3582 12.05C84.5382 12.27 84.6282 12.52 84.6282 12.8ZM112.304 32.33H110.084L107.534 25.52H99.3141L96.7941 32.33H95.2041L101.234 15.98C101.354 15.64 101.444 15.34 101.504 15.08C101.564 14.82 101.624 14.53 101.684 14.21C101.684 13.73 101.544 13.35 101.264 13.07C101.004 12.77 100.554 12.62 99.9141 12.62C99.7741 12.62 99.6641 12.59 99.5841 12.53C99.5241 12.45 99.4841 12.36 99.4641 12.26C99.4241 12.14 99.4441 12.03 99.5241 11.93C99.6241 11.83 99.7341 11.78 99.8541 11.78H104.504L112.304 32.33ZM107.084 24.17L103.394 14.18L99.7941 24.17H107.084ZM130.292 15.35H127.982C127.922 15.05 127.782 14.74 127.562 14.42C127.362 14.1 127.082 13.8 126.722 13.52C126.342 13.24 125.882 13.01 125.342 12.83C124.802 12.65 124.182 12.56 123.482 12.56C122.782 12.56 122.002 12.69 121.142 12.95C120.302 13.21 119.512 13.66 118.772 14.3C118.032 14.94 117.412 15.81 116.912 16.91C116.412 18.01 116.162 19.41 116.162 21.11C116.162 23.51 116.562 25.49 117.362 27.05C118.182 28.59 119.672 29.81 121.832 30.71C122.252 30.89 122.782 31.01 123.422 31.07C124.082 31.13 124.782 31.13 125.522 31.07C126.242 31.01 126.982 30.89 127.742 30.71C128.502 30.51 129.202 30.25 129.842 29.93C130.122 29.87 130.312 30.01 130.412 30.35C130.512 30.67 130.422 30.91 130.142 31.07C129.482 31.43 128.702 31.74 127.802 32C126.902 32.24 125.962 32.39 124.982 32.45C124.002 32.51 123.022 32.46 122.042 32.3C121.062 32.14 120.152 31.82 119.312 31.34C117.692 30.42 116.402 29.16 115.442 27.56C114.502 25.94 114.012 23.96 113.972 21.62C113.972 20.62 114.072 19.65 114.272 18.71C114.472 17.75 114.782 16.86 115.202 16.04C115.622 15.22 116.142 14.49 116.762 13.85C117.382 13.19 118.102 12.66 118.922 12.26C119.602 11.94 120.332 11.7 121.112 11.54C121.912 11.36 122.712 11.27 123.512 11.27C124.472 11.27 125.352 11.4 126.152 11.66C126.972 11.9 127.672 12.22 128.252 12.62C128.852 13 129.322 13.44 129.662 13.94C130.022 14.42 130.232 14.89 130.292 15.35ZM146.695 28.28L146.485 32.33H134.305V15.38C134.305 14.78 134.245 14.32 134.125 14C134.025 13.66 133.815 13.35 133.495 13.07C133.355 12.95 133.165 12.85 132.925 12.77C132.685 12.69 132.455 12.65 132.235 12.65C131.895 12.65 131.725 12.5 131.725 12.2C131.725 11.88 131.885 11.72 132.205 11.72H145.945L146.095 15.29C146.095 15.45 145.975 15.53 145.735 15.53C145.515 15.53 145.405 15.44 145.405 15.26C145.405 15.26 145.345 15.07 145.225 14.69C145.105 14.31 144.945 13.98 144.745 13.7C144.565 13.48 144.295 13.31 143.935 13.19C143.575 13.05 143.035 12.98 142.315 12.98H138.325C137.945 12.98 137.645 13.01 137.425 13.07C137.205 13.11 136.975 13.21 136.735 13.37C136.515 13.55 136.365 13.77 136.285 14.03C136.225 14.29 136.195 14.7 136.195 15.26V20.9H141.055C141.375 20.9 141.685 20.89 141.985 20.87C142.285 20.85 142.535 20.8 142.735 20.72C143.155 20.56 143.485 20.35 143.725 20.09C143.985 19.83 144.115 19.4 144.115 18.8C144.115 18.64 144.235 18.56 144.475 18.56C144.715 18.54 144.835 18.61 144.835 18.77V24.38C144.835 24.62 144.705 24.74 144.445 24.74C144.185 24.74 144.055 24.62 144.055 24.38C144.055 24.38 144.025 24.22 143.965 23.9C143.905 23.56 143.725 23.21 143.425 22.85C143.205 22.61 142.895 22.44 142.495 22.34C142.115 22.24 141.635 22.19 141.055 22.19H136.195V29C136.195 29.28 136.225 29.57 136.285 29.87C136.365 30.15 136.505 30.37 136.705 30.53C136.945 30.73 137.215 30.87 137.515 30.95C137.835 31.01 138.315 31.04 138.955 31.04H143.035C143.655 31.04 144.135 30.96 144.475 30.8C144.835 30.64 145.105 30.43 145.285 30.17C145.465 29.89 145.595 29.59 145.675 29.27C145.755 28.95 145.825 28.62 145.885 28.28C145.925 28.06 146.065 27.97 146.305 28.01C146.565 28.03 146.695 28.12 146.695 28.28Z" fill="black"/>
</svg>
