<svg width="30" height="31" viewBox="0 0 30 31" fill="none" xmlns="http://www.w3.org/2000/svg">
<path d="M30 15.9951C30 24.2794 23.2843 30.9951 15 30.9951C6.71573 30.9951 0 24.2794 0 15.9951C0 7.71085 6.71573 0.995117 15 0.995117C23.2843 0.995117 30 7.71085 30 15.9951Z" fill="#BDBDBD"/>
<rect x="3.6333" y="10.5674" width="22" height="11.3208" rx="2" fill="white"/>
<path d="M2.6665 14.3027H3.36839C4.30623 14.3027 5.0665 15.063 5.0665 16.0008V16.0008C5.0665 16.9387 4.30623 17.699 3.36839 17.699H2.6665V14.3027Z" fill="#BDBDBD"/>
<rect x="11.3335" y="9.66113" width="0.666667" height="2" rx="0.333333" fill="#BDBDBD"/>
<rect x="11.3335" y="12.9941" width="0.666667" height="1.33333" rx="0.333333" fill="#BDBDBD"/>
<rect x="11.3335" y="15.6611" width="0.666667" height="1.33333" rx="0.333333" fill="#BDBDBD"/>
<rect x="11.3335" y="18.3281" width="0.666667" height="1.33333" rx="0.333333" fill="#BDBDBD"/>
<rect x="11.3335" y="20.9941" width="0.666667" height="2" rx="0.333333" fill="#BDBDBD"/>
</svg>
