<svg width="30" height="31" viewBox="0 0 30 31" fill="none" xmlns="http://www.w3.org/2000/svg">
<circle cx="15" cy="15.0127" r="15" fill="#BDBDBD"/>
<path d="M7.27386 5.71124C6.50674 5.90239 5.90756 6.47586 5.7033 7.20225C5.5989 7.56756 5.5989 21.3902 5.7033 21.7555C5.90756 22.4904 6.51128 23.0596 7.29202 23.2507C7.52352 23.306 8.09091 23.3145 11.3001 23.3145C14.8452 23.3145 15.0404 23.3102 15.0086 23.238C14.7045 22.4904 14.6909 21.5856 14.9859 20.8507C15.1539 20.4259 19.0394 12.9921 19.2392 12.7032C19.6749 12.0916 20.4829 11.6498 21.3317 11.5648L21.6132 11.5351V9.49185C21.6132 7.81394 21.5995 7.4019 21.5451 7.20225C21.3408 6.46736 20.7371 5.89815 19.9564 5.70699C19.566 5.61354 7.65515 5.61354 7.27386 5.71124ZM17.6459 9.83168C17.8865 9.99735 17.9591 10.1333 17.9591 10.4009C17.9591 10.6685 17.8865 10.8044 17.6459 10.9701C17.5234 11.0593 17.487 11.0593 12.9978 11.0721C9.90659 11.0806 8.41774 11.0721 8.30426 11.0381C7.8458 10.9149 7.66877 10.3244 7.98197 9.97186C8.21801 9.71274 7.96382 9.72124 12.9524 9.73398C17.487 9.74248 17.5234 9.74248 17.6459 9.83168ZM16.9196 12.5503C17.1602 12.716 17.2328 12.8519 17.2328 13.1195C17.2328 13.3872 17.1602 13.5231 16.9196 13.6888C16.7971 13.778 16.7562 13.778 12.6346 13.7907C9.79765 13.7992 8.41774 13.7907 8.30426 13.7567C7.8458 13.6335 7.66877 13.0431 7.98197 12.6905C8.21801 12.4314 7.99559 12.4399 12.5893 12.4526C16.7562 12.4611 16.7971 12.4611 16.9196 12.5503ZM15.4671 15.269C15.7077 15.4346 15.7803 15.5706 15.7803 15.8382C15.7803 16.1058 15.7077 16.2417 15.4671 16.4074C15.3445 16.4966 15.2946 16.4966 11.9084 16.5093C9.57977 16.5178 8.41774 16.5093 8.30426 16.4754C7.8458 16.3522 7.66877 15.7617 7.98197 15.4091C8.21801 15.15 8.05914 15.1585 11.863 15.1713C15.2991 15.1798 15.3445 15.1798 15.4671 15.269ZM14.0146 17.9876C14.2551 18.1533 14.3278 18.2892 14.3278 18.5568C14.3278 18.8244 14.2551 18.9604 14.0146 19.126C13.892 19.2152 13.8375 19.2152 11.1821 19.228C9.36189 19.2365 8.41774 19.228 8.30426 19.194C7.8458 19.0708 7.66877 18.4804 7.98197 18.1278C8.21347 17.8729 8.12723 17.8772 11.1367 17.8899C13.8375 17.8984 13.892 17.8984 14.0146 17.9876Z" fill="white"/>
<path d="M21.1594 12.9754C20.8735 13.0731 20.6102 13.2515 20.4649 13.4469C20.4014 13.5361 19.4436 15.3372 18.3451 17.4442C16.9198 20.1755 16.3252 21.3607 16.2753 21.5646C16.1618 22.0149 16.2072 22.308 16.5522 23.2425C16.879 24.1388 16.9834 24.2917 17.3102 24.3682C17.5281 24.4192 17.6915 24.3852 18.6039 24.0836C19.8068 23.6928 20.002 23.5314 20.583 22.4397C21.9765 19.8315 24.3051 15.2947 24.346 15.1036C24.414 14.8105 24.3641 14.5344 24.1871 14.2115C23.9919 13.8632 23.7922 13.7315 22.8117 13.294C22.0764 12.9669 21.9856 12.9372 21.686 12.9202C21.4681 12.9117 21.3002 12.9287 21.1594 12.9754Z" fill="white"/>
</svg>
